<?xml version="1.0" encoding="utf-8"?>
<!-- Generator: Adobe Illustrator 17.1.0, SVG Export Plug-In . SVG Version: 6.00 Build 0)  -->
<!DOCTYPE svg PUBLIC "-//W3C//DTD SVG 1.1//EN" "http://www.w3.org/Graphics/SVG/1.1/DTD/svg11.dtd">
<svg version="1.1" id="Layer_1" xmlns="http://www.w3.org/2000/svg" xmlns:xlink="http://www.w3.org/1999/xlink" x="0px" y="0px"
	 viewBox="0 0 35.242 35.211" enable-background="new 0 0 35.242 35.211" xml:space="preserve">
<g>
	<g>
		<g>
			<polyline fill="none" stroke="#FF8189" stroke-linecap="round" stroke-linejoin="round" points="6.723,4.386 11.674,1.527 
				2.951,8.745 17.231,0.5 2.042,10.548 19.252,0.612 1.11,13.14 21.979,1.091 0.692,14.886 23.719,1.591 0.525,16.754 25.404,2.39 
				0.5,18.248 26.715,3.113 0.646,19.872 28.046,4.053 0.877,21.289 29.147,4.967 1.272,22.728 30.204,6.024 1.887,24.406 
				31.339,7.402 2.654,26.019 32.371,8.861 3.19,26.873 32.825,9.763 4.062,28.106 33.472,11.127 5.315,29.534 34.072,12.931 
				6.826,30.966 34.553,14.958 8.553,32.186 34.742,17.066 9.605,32.779 34.737,18.269 11.234,33.552 34.575,20.076 13.518,34.258 
				34.057,22.4 16.48,34.711 32.982,25.184 20.41,34.563 30.89,28.512 			"/>
		</g>
	</g>
	<path fill="#FFFFFF" d="M13.939,29.164l-0.022-8.992l-2.892-0.023l-0.02-4.825l3.223-0.02l0.039-1.368
		c0.007-2.84-0.024-6.209,3.219-7.229c0.703-0.221,1.458-0.35,2.188-0.422c0.748-0.072,1.497-0.116,2.248-0.145
		c0.163-0.007,2.269-0.063,2.269,0.02c0,0,0.04,4.967,0.04,4.976c0-0.006-1.803,0.009-2.007,0.015
		c-0.78,0.017-1.603,0.105-2.046,0.838c-0.356,0.589-0.475,1.29-0.508,1.968c-0.005,0.109-0.008,1.385,0.066,1.386l4.04,0.039v4.963
		l-4.001,0.039l-0.005,8.78H13.939z"/>
</g>
<g>
	<g>
		<g>
			<polyline fill="none" stroke="#FF8189" stroke-linecap="round" stroke-linejoin="round" points="392.875,134.309 397.826,131.45 
				389.102,138.668 403.383,130.423 388.193,140.471 405.404,130.535 387.262,143.063 408.13,131.014 386.844,144.808 
				409.871,131.514 386.677,146.677 411.555,132.313 386.652,148.171 412.867,133.035 386.798,149.795 414.197,133.976 
				387.028,151.212 415.298,134.89 387.424,152.651 416.356,135.947 388.039,154.329 417.491,137.325 388.805,155.942 
				418.523,138.784 389.342,156.796 418.976,139.686 390.214,158.029 419.624,141.05 391.466,159.457 420.223,142.854 
				392.978,160.889 420.704,144.881 394.705,162.109 420.894,146.989 395.757,162.702 420.888,148.192 397.385,163.475 
				420.727,149.998 399.67,164.181 420.209,152.323 402.632,164.634 419.134,155.107 406.562,164.486 417.042,158.435 			"/>
		</g>
	</g>
	<path fill="#FFFFFF" d="M400.091,159.086l-0.022-8.992l-2.892-0.023l-0.02-4.825l3.223-0.02l0.039-1.368
		c0.007-2.84-0.024-6.209,3.219-7.229c0.703-0.221,1.458-0.35,2.188-0.422c0.748-0.072,1.497-0.116,2.248-0.145
		c0.163-0.007,2.269-0.063,2.269,0.02c0,0,0.04,4.967,0.04,4.976c0-0.006-1.803,0.009-2.007,0.015
		c-0.78,0.017-1.603,0.105-2.046,0.838c-0.356,0.589-0.475,1.29-0.508,1.968c-0.005,0.109-0.008,1.385,0.066,1.386l4.04,0.039v4.963
		l-4.001,0.039l-0.005,8.78H400.091z"/>
</g>
</svg>
