<?xml version="1.0" encoding="utf-8"?>
<!-- Generator: Adobe Illustrator 17.1.0, SVG Export Plug-In . SVG Version: 6.00 Build 0)  -->
<!DOCTYPE svg PUBLIC "-//W3C//DTD SVG 1.1//EN" "http://www.w3.org/Graphics/SVG/1.1/DTD/svg11.dtd">
<svg version="1.1" id="Layer_1" xmlns="http://www.w3.org/2000/svg" xmlns:xlink="http://www.w3.org/1999/xlink" x="0px" y="0px"
	 viewBox="0 0 38.194 38.194" enable-background="new 0 0 38.194 38.194" xml:space="preserve">
<g>
	<g>
		<polyline fill="none" stroke="#FF8189" stroke-linecap="round" stroke-linejoin="round" points="0.03,0.319 0.531,0.03 
			0.03,1.608 2.768,0.028 0.03,2.946 5.088,0.026 0.03,5.25 9.084,0.023 0.03,7.28 12.605,0.02 0.03,8.518 14.752,0.018 0.03,9.882 
			17.117,0.017 0.03,11.04 19.126,0.015 0.03,12.426 21.53,0.013 0.03,14.548 25.209,0.01 0.03,16.071 27.852,0.008 0.03,17.527 
			30.377,0.006 0.03,19.092 33.091,0.004 0.03,20.982 36.369,0.001 0.03,22.454 38.165,0.437 0.03,24.396 38.166,2.378 0.03,26.114 
			38.168,4.095 0.03,27.949 38.169,5.93 0.03,30.252 38.171,8.231 0.03,32.302 38.173,10.28 0.03,33.737 38.174,11.715 0.03,35.042 
			38.175,13.019 0.03,36.905 38.176,14.881 1.031,38.194 38.178,16.747 4.138,38.191 38.179,18.538 6.178,38.19 38.18,19.713 
			9.929,38.187 38.182,21.875 13.131,38.184 38.183,23.72 15.163,38.183 38.184,24.891 17.627,38.181 38.185,26.312 20.403,38.178 
			38.186,27.911 22.441,38.177 38.187,29.086 26.284,38.174 38.189,31.301 29.278,38.171 38.19,33.026 32.652,38.169 38.192,34.97 
			34.685,38.167 38.193,36.142 37.694,38.165 38.194,37.876 		"/>
	</g>
</g>
<g>
	<line fill="none" stroke="#FFFFFF" stroke-width="2" stroke-miterlimit="10" x1="1.826" y1="7.465" x2="36.642" y2="7.465"/>
	<line fill="none" stroke="#FFFFFF" stroke-width="2" stroke-miterlimit="10" x1="1.553" y1="18.359" x2="36.369" y2="18.359"/>
	<line fill="none" stroke="#FFFFFF" stroke-width="2" stroke-miterlimit="10" x1="1.826" y1="30.729" x2="36.642" y2="30.729"/>
</g>
</svg>
