<?xml version="1.0" encoding="utf-8"?>
<!-- Generator: Adobe Illustrator 17.1.0, SVG Export Plug-In . SVG Version: 6.00 Build 0)  -->
<!DOCTYPE svg PUBLIC "-//W3C//DTD SVG 1.1//EN" "http://www.w3.org/Graphics/SVG/1.1/DTD/svg11.dtd">
<svg version="1.1" id="Layer_1" xmlns="http://www.w3.org/2000/svg" xmlns:xlink="http://www.w3.org/1999/xlink" x="0px" y="0px"
	 viewBox="0 0 612 792" enable-background="new 0 0 612 792" xml:space="preserve">
<g display="none">
	<g display="inline">
		<polyline fill="none" stroke="#FF8189" stroke-linecap="round" stroke-linejoin="round" points="0.5,95.1 8.5,90.5 0.5,115.8 
			44.4,90.4 0.5,137.2 81.5,90.4 0.5,174.1 145.6,90.4 0.5,206.7 202,90.3 0.5,226.5 236.4,90.3 0.5,248.3 274.3,90.3 0.5,266.9 
			306.5,90.2 0.5,289.1 345,90.2 0.5,323.1 403.9,90.2 0.5,347.5 446.3,90.1 0.5,370.8 486.7,90.1 0.5,395.9 530.2,90.1 0.5,426.2 
			582.8,90 0.5,449.8 611.5,97 0.5,480.9 611.6,128.1 0.5,508.4 611.6,155.6 0.5,537.8 611.6,185 0.5,574.7 611.6,221.9 0.5,607.6 
			611.7,254.7 0.5,630.6 611.7,277.7 0.5,651.5 611.7,298.6 0.5,681.3 611.7,328.4 16.5,702 611.7,358.3 66.3,702 611.8,387 
			99,701.9 611.8,405.9 159.1,701.9 611.8,440.5 210.4,701.8 611.8,470.1 243,701.8 611.8,488.8 282.4,701.8 611.9,511.6 
			326.9,701.7 611.9,537.2 359.6,701.7 611.9,556.1 421.2,701.7 611.9,591.6 469.1,701.6 611.9,619.2 523.2,701.6 612,650.3 
			555.8,701.6 612,669.1 604,701.5 612,696.9 		"/>
	</g>
</g>
<g>
	<g>
		<g>
			<path fill="none" stroke="#FF8189" stroke-width="2.9464" stroke-linecap="round" stroke-linejoin="round" d="M-2.7,143.4
				c0,0,1.3-0.8,1.4-0.8c0.1,0.1-0.2,6.3-0.1,6.4c0.2,0.3,14-8.6,14.2-8.2c0.3,0.5-12.9,13.9-12.6,14.4c0.3,0.6,24.4-14.8,24.7-14.3
				c0.3,0.6-22.9,18.7-22.6,19.3c0.5,0.9,34.2-20.8,34.6-20c0.6,1-36.1,25.9-35.6,26.9c0.6,1.1,42.9-26.1,43.5-25.1
				c0.7,1.2-49.3,33.9-48.6,35.1c0.9,1.6,59.1-35.9,59.9-34.6c1.1,1.9-62.5,40.5-61.6,42c1.1,2,71.9-43.5,72.8-42
				c1.2,2-67,43-66.2,44.5c1.3,2.3,72.5-44.5,73.6-42.5c1.3,2.3-77.1,49.5-76.1,51.1c1.2,2.1,92.7-56.1,93.9-54.2
				c1.6,2.8-93,57-91.6,59.4c1.3,2.2,103.1-63.1,104.7-60.4c1.5,2.6-111.7,68.2-110.2,70.8c1.5,2.6,121.7-74.8,123.7-71.4
				c1.8,3.2-117.7,70.7-115.9,73.9c1.5,2.7,124.5-75.5,126.1-72.8c1.8,3.1-119.2,70.6-117.1,74.2c2.2,3.8,127.9-78.8,130.1-75.1
				c2.1,3.6-121.9,72.5-120,75.9c2,3.5,125.2-76.5,127-73.3c1.9,3.4-116,70-114.5,72.6c2,3.5,124.4-76.7,126.5-73
				c2,3.4-121.7,72.9-120.1,75.7c1.7,2.9,128.5-77.8,130.1-75.1c2,3.4-119.6,71.9-118.1,74.3c1.8,3.1,124.4-76.2,126.3-72.9
				c1.4,2.5-115,69.4-113.6,71.8c2.1,3.6,125.2-77.3,127.3-73.5c1.7,3-119.4,71.6-117.5,74.9c1.6,2.8,124.5-75.8,126.2-72.9
				c1.5,2.6-115.4,70.3-114,72.7c1.8,3.1,124.7-76.4,126.6-73.1c1.9,3.3-113.9,69.2-112.3,72c1.8,3.2,124.1-75.9,126-72.7
				c1.7,2.9-114.5,68-112.6,71.3c1.5,2.6,123.7-75.7,125.6-72.5c1.5,2.6-113,69.1-111.6,71.4c1.8,3.2,122.4-74.8,124.2-71.7
				c1.8,3.1-120.2,71-118.1,74.5c2.1,3.6,123.7-75.3,125.4-72.4c1.9,3.2-112.9,67.7-111.1,70.7c1.7,2.9,121-74,122.8-70.9
				c1.9,3.3-115.6,69.2-113.6,72.7c1.9,3.3,123.9-75.6,125.7-72.6c1.6,2.7-110.8,66.3-108.9,69.6c1.8,3,125.7-76.9,127.6-73.7
				c2,3.4-118.8,70.8-117.1,73.9c2,3.5,121.9-74.6,123.7-71.4c1.8,3.1-114.7,69.2-113.1,71.9c1.6,2.7,119.9-74.2,122.1-70.5
				c1.8,3.1-114.8,68.4-113,71.5c1.8,3.1,121.4-74.8,123.4-71.2c1.4,2.5-114.1,69.7-112.8,72c2,3.5,124.2-75.3,125.7-72.6
				c1.9,3.3-119.9,71.5-118.2,74.5c1.7,2.9,125.9-76.9,127.8-73.8c1.8,3.1-112.6,67.8-110.7,71.1c2,3.4,120.9-74.1,122.7-70.9
				c1.9,3.3-115.3,69.4-113.7,72.1c2.2,3.8,125.4-76.4,127.1-73.4c1.9,3.3-115.5,70.2-114,72.9c2.1,3.7,124.1-76.3,126.1-72.8
				c1.7,2.9-111.9,67.7-110.5,70.2c2.1,3.6,125.3-76.4,127.1-73.4c1.5,2.6-126.1,74.7-124.2,77.9c2,3.5,128.8-78.1,130.4-75.3
				c1.9,3.3-121.3,72.4-119.6,75.4c1.5,2.6,131.5-79.4,133-76.8c2,3.4-119.4,71.5-117.4,75c2,3.4,128.5-78.3,130.3-75.2
				c1.5,2.5-120.5,72.4-118.6,75.7c2.1,3.6,130-79.9,132.1-76.3c1.8,3.1-120.6,72.4-118.7,75.7c1.8,3.2,124.6-76.8,126.7-73.1
				c1.9,3.3-115.2,69.7-113.7,72.2c1.7,3,122.4-74.4,124-71.6c1.9,3.3-113.5,68.1-111.5,71.5c2.2,3.8,128.2-78.5,130.1-75.1
				c1.8,3.1-117.6,71.2-115.9,74.1c1.6,2.7,125.9-76.5,127.6-73.7c1.5,2.5-119.7,71.9-117.9,75c1.5,2.6,127.7-78.5,129.8-74.9
				c2,3.4-124.3,73.3-122.2,76.9c1.8,3.2,129-78.3,130.6-75.4c1.9,3.2-118.1,70.8-116.3,73.9c1.7,3,127.5-78.5,129.6-74.8
				c1.5,2.6-119.7,71.5-117.7,74.9c2,3.4,126.1-77.9,128.3-74.1c1.8,3.2-119.2,71.1-117.4,74.4c1.6,2.8,126.3-76.4,127.8-73.8
				c1.8,3.1-116.3,68.8-114.3,72.3c2.2,3.8,123.8-76.2,125.9-72.7c1.4,2.4-115.3,69.7-113.9,72.3c1.8,3.2,127.1-77.8,129-74.5
				c1.9,3.2-123.4,73.9-121.5,77.3c2.1,3.6,129.1-78.4,130.7-75.5c1.6,2.8-114.8,70-113.3,72.5c1.8,3.1,119.4-73.4,121.3-70.1
				c1.9,3.3-115.1,69.8-113.5,72.5c2.1,3.6,124.5-76.7,126.6-73.1c1.4,2.4-113.3,68.6-111.8,71.1c1.4,2.5,109.3-67.1,111.1-64.1
				c1.4,2.4-104.7,62.8-102.9,65.9c1.3,2.3,101-61.1,102.2-59c1.2,2.1-89.8,55-88.4,57.5c1.5,2.6,84.5-52.3,86.1-49.7
				c1.1,1.9-77.6,48.8-76.7,50.4c1.3,2.3,77.6-47.4,78.7-45.4c1,1.8-69.7,44.5-68.8,46.1c1.1,1.9,67.6-41,68.4-39.5
				c0.8,1.4-59.3,38.9-58.6,40.2c0.8,1.4,56.6-34.2,57.2-33c0.7,1.2-47.3,31.9-46.5,33.3c0.5,0.9,48.6-29.9,49.4-28.5
				c0.6,1-37.4,26.7-36.8,27.8c0.4,0.7,31.4-19.4,31.9-18.4c0.3,0.6-20.6,17.2-20.2,17.8c0.3,0.6,24.6-14.9,24.9-14.4
				c0.3,0.6-16.2,15.2-15.9,15.6c0.2,0.3,13.6-8.3,13.8-8c0.1,0.1,1.1,5.5,1.1,5.6c0,0,3.8-2.2,3.8-2.2"/>
		</g>
	</g>
</g>
<g>
	<g>
		<g>
			<path fill="none" stroke="#FF8189" stroke-width="2.9464" stroke-linecap="round" stroke-linejoin="round" d="M-1.7,366.5
				c0,0,1.3-0.8,1.4-0.8c0.1,0.1-0.2,6.3-0.1,6.4c0.2,0.3,14-8.6,14.2-8.2c0.3,0.5-12.9,13.9-12.6,14.4c0.3,0.6,24.4-14.8,24.7-14.3
				c0.3,0.6-22.9,18.7-22.6,19.3c0.5,0.9,34.2-20.8,34.6-20c0.6,1-36.1,25.9-35.6,26.9c0.6,1.1,42.9-26.1,43.5-25.1
				c0.7,1.2-49.3,33.9-48.6,35.1c0.9,1.6,59.1-35.9,59.9-34.6c1.1,1.9-62.5,40.5-61.6,42c1.1,2,71.9-43.5,72.8-42
				c1.2,2-67,43-66.2,44.5c1.3,2.3,72.5-44.5,73.6-42.5c1.3,2.3-77.1,49.5-76.1,51.1c1.2,2.1,92.7-56.1,93.9-54.2
				c1.6,2.8-93,57-91.6,59.4c1.3,2.2,103.1-63.1,104.7-60.4c1.5,2.6-111.7,68.2-110.2,70.8c1.5,2.6,121.7-74.8,123.7-71.4
				c1.8,3.2-117.7,70.7-115.9,73.9c1.5,2.7,124.5-75.5,126.1-72.8c1.8,3.1-119.2,70.6-117.1,74.2c2.2,3.8,127.9-78.8,130.1-75.1
				c2.1,3.6-121.9,72.5-120,75.9c2,3.5,125.2-76.5,127-73.3c1.9,3.4-116,70-114.5,72.6c2,3.5,124.4-76.7,126.5-73
				c2,3.4-121.7,72.9-120.1,75.7c1.7,2.9,128.5-77.8,130.1-75.1c2,3.4-119.6,71.9-118.1,74.3c1.8,3.1,124.4-76.2,126.3-72.9
				c1.4,2.5-115,69.4-113.6,71.8c2.1,3.6,125.2-77.3,127.3-73.5c1.7,3-119.4,71.6-117.5,74.9c1.6,2.8,124.5-75.8,126.2-72.9
				c1.5,2.6-115.4,70.3-114,72.7c1.8,3.1,124.7-76.4,126.6-73.1c1.9,3.3-113.9,69.2-112.3,72c1.8,3.2,124.1-75.9,126-72.7
				c1.7,2.9-114.5,68-112.6,71.3c1.5,2.6,123.7-75.7,125.6-72.5c1.5,2.6-113,69.1-111.6,71.4c1.8,3.2,122.4-74.8,124.2-71.7
				c1.8,3.1-120.2,71-118.1,74.5c2.1,3.6,123.7-75.3,125.4-72.4c1.9,3.2-112.9,67.7-111.1,70.7c1.7,2.9,121-74,122.8-70.9
				c1.9,3.3-115.6,69.2-113.6,72.7c1.9,3.3,123.9-75.6,125.7-72.6c1.6,2.7-110.8,66.3-108.9,69.6c1.8,3,125.7-76.9,127.6-73.7
				c2,3.4-118.8,70.8-117.1,73.9c2,3.5,121.9-74.6,123.7-71.4c1.8,3.1-114.7,69.2-113.1,71.9c1.6,2.7,119.9-74.2,122.1-70.5
				c1.8,3.1-114.8,68.4-113,71.5c1.8,3.1,121.4-74.8,123.4-71.2c1.4,2.5-114.1,69.7-112.8,72c2,3.5,124.2-75.3,125.7-72.6
				c1.9,3.3-119.9,71.5-118.2,74.5c1.7,2.9,125.9-76.9,127.8-73.8c1.8,3.1-112.6,67.8-110.7,71.1c2,3.4,120.9-74.1,122.7-70.9
				c1.9,3.3-115.3,69.4-113.7,72.1c2.2,3.8,125.4-76.4,127.1-73.4c1.9,3.3-115.5,70.2-114,72.9c2.1,3.7,124.1-76.3,126.1-72.8
				c1.7,2.9-111.9,67.7-110.5,70.2c2.1,3.6,125.3-76.4,127.1-73.4c1.5,2.6-126.1,74.7-124.2,77.9c2,3.5,128.8-78.1,130.4-75.3
				c1.9,3.3-121.3,72.4-119.6,75.4c1.5,2.6,131.5-79.4,133-76.8c2,3.4-119.4,71.5-117.4,75c2,3.4,128.5-78.3,130.3-75.2
				c1.5,2.5-120.5,72.4-118.6,75.7c2.1,3.6,130-79.9,132.1-76.3c1.8,3.1-120.6,72.4-118.7,75.7c1.8,3.2,124.6-76.8,126.7-73.1
				c1.9,3.3-115.2,69.7-113.7,72.2c1.7,3,122.4-74.4,124-71.6c1.9,3.3-113.5,68.1-111.5,71.5c2.2,3.8,128.2-78.5,130.1-75.1
				c1.8,3.1-117.6,71.2-115.9,74.1c1.6,2.7,125.9-76.5,127.6-73.7c1.5,2.5-119.7,71.9-117.9,75c1.5,2.6,127.7-78.5,129.8-74.9
				c2,3.4-124.3,73.3-122.2,76.9c1.8,3.2,129-78.3,130.6-75.4c1.9,3.2-118.1,70.8-116.3,73.9c1.7,3,127.5-78.5,129.6-74.8
				c1.5,2.6-119.7,71.5-117.7,74.9c2,3.4,126.1-77.9,128.3-74.1c1.8,3.2-119.2,71.1-117.4,74.4c1.6,2.8,126.3-76.4,127.8-73.8
				c1.8,3.1-116.3,68.8-114.3,72.3c2.2,3.8,123.8-76.2,125.9-72.7c1.4,2.4-115.3,69.7-113.9,72.3c1.8,3.2,127.1-77.8,129-74.5
				c1.9,3.2-123.4,73.9-121.5,77.3c2.1,3.6,129.1-78.4,130.7-75.5c1.6,2.8-114.8,70-113.3,72.5c1.8,3.1,119.4-73.4,121.3-70.1
				c1.9,3.3-115.1,69.8-113.5,72.5c2.1,3.6,124.5-76.7,126.6-73.1c1.4,2.4-113.3,68.6-111.8,71.1c1.4,2.5,109.3-67.1,111.1-64.1
				c1.4,2.4-104.7,62.8-102.9,65.9c1.3,2.3,101-61.1,102.2-59c1.2,2.1-89.8,55-88.4,57.5c1.5,2.6,84.5-52.3,86.1-49.7
				c1.1,1.9-77.6,48.8-76.7,50.4c1.3,2.3,77.6-47.4,78.7-45.4c1,1.8-69.7,44.5-68.8,46.1c1.1,1.9,67.6-41,68.4-39.5
				c0.8,1.4-59.3,38.9-58.6,40.2c0.8,1.4,56.6-34.2,57.2-33c0.7,1.2-47.3,31.9-46.5,33.3c0.5,0.9,48.6-29.9,49.4-28.5
				c0.6,1-37.4,26.7-36.8,27.8c0.4,0.7,31.4-19.4,31.9-18.4c0.3,0.6-20.6,17.2-20.2,17.8c0.3,0.6,24.6-14.9,24.9-14.4
				c0.3,0.6-16.2,15.2-15.9,15.6c0.2,0.3,13.6-8.3,13.8-8c0.1,0.1,1.1,5.5,1.1,5.6c0,0,3.8-2.2,3.8-2.2"/>
		</g>
	</g>
</g>
<g>
	<g>
		<g>
			<path fill="none" stroke="#FF8189" stroke-width="2.9464" stroke-linecap="round" stroke-linejoin="round" d="M-1.7,587.4
				c0,0,1.3-0.8,1.4-0.8c0.1,0.1-0.2,6.3-0.1,6.4c0.2,0.3,14-8.6,14.2-8.2c0.3,0.5-12.9,13.9-12.6,14.4c0.3,0.6,24.4-14.8,24.7-14.3
				c0.3,0.6-22.9,18.7-22.6,19.3c0.5,0.9,34.2-20.8,34.6-20c0.6,1-36.1,25.9-35.6,26.9c0.6,1.1,42.9-26.1,43.5-25.1
				c0.7,1.2-49.3,33.9-48.6,35.1c0.9,1.6,59.1-35.9,59.9-34.6c1.1,1.9-62.5,40.5-61.6,42c1.1,2,71.9-43.5,72.8-42
				c1.2,2-67,43-66.2,44.5c1.3,2.3,72.5-44.5,73.6-42.5c1.3,2.3-77.1,49.5-76.1,51.1c1.2,2.1,92.7-56.1,93.9-54.2
				c1.6,2.8-93,57-91.6,59.4c1.3,2.2,103.1-63.1,104.7-60.4c1.5,2.6-111.7,68.2-110.2,70.8c1.5,2.6,121.7-74.8,123.7-71.4
				c1.8,3.2-117.7,70.7-115.9,73.9c1.5,2.7,124.5-75.5,126.1-72.8c1.8,3.1-119.2,70.6-117.1,74.2c2.2,3.8,127.9-78.8,130.1-75.1
				c2.1,3.6-121.9,72.5-120,75.9c2,3.5,125.2-76.5,127-73.3c1.9,3.4-116,70-114.5,72.6c2,3.5,124.4-76.7,126.5-73
				c2,3.4-121.7,72.9-120.1,75.7c1.7,2.9,128.5-77.8,130.1-75.1c2,3.4-119.6,71.9-118.1,74.3c1.8,3.1,124.4-76.2,126.3-72.9
				c1.4,2.5-115,69.4-113.6,71.8c2.1,3.6,125.2-77.3,127.3-73.5c1.7,3-119.4,71.6-117.5,74.9c1.6,2.8,124.5-75.8,126.2-72.9
				c1.5,2.6-115.4,70.3-114,72.7c1.8,3.1,124.7-76.4,126.6-73.1c1.9,3.3-113.9,69.2-112.3,72c1.8,3.2,124.1-75.9,126-72.7
				c1.7,2.9-114.5,68-112.6,71.3c1.5,2.6,123.7-75.7,125.6-72.5c1.5,2.6-113,69.1-111.6,71.4c1.8,3.2,122.4-74.8,124.2-71.7
				c1.8,3.1-120.2,71-118.1,74.5c2.1,3.6,123.7-75.3,125.4-72.4c1.9,3.2-112.9,67.7-111.1,70.7c1.7,2.9,121-74,122.8-70.9
				c1.9,3.3-115.6,69.2-113.6,72.7c1.9,3.3,123.9-75.6,125.7-72.6c1.6,2.7-110.8,66.3-108.9,69.6c1.8,3,125.7-76.9,127.6-73.7
				c2,3.4-118.8,70.8-117.1,73.9c2,3.5,121.9-74.6,123.7-71.4c1.8,3.1-114.7,69.2-113.1,71.9c1.6,2.7,119.9-74.2,122.1-70.5
				c1.8,3.1-114.8,68.4-113,71.5c1.8,3.1,121.4-74.8,123.4-71.2c1.4,2.5-114.1,69.7-112.8,72c2,3.5,124.2-75.3,125.7-72.6
				c1.9,3.3-119.9,71.5-118.2,74.5c1.7,2.9,125.9-76.9,127.8-73.8c1.8,3.1-112.6,67.8-110.7,71.1c2,3.4,120.9-74.1,122.7-70.9
				c1.9,3.3-115.3,69.4-113.7,72.1c2.2,3.8,125.4-76.4,127.1-73.4c1.9,3.3-115.5,70.2-114,72.9c2.1,3.7,124.1-76.3,126.1-72.8
				c1.7,2.9-111.9,67.7-110.5,70.2c2.1,3.6,125.3-76.4,127.1-73.4c1.5,2.6-126.1,74.7-124.2,77.9c2,3.5,128.8-78.1,130.4-75.3
				c1.9,3.3-121.3,72.4-119.6,75.4c1.5,2.6,131.5-79.4,133-76.8c2,3.4-119.4,71.5-117.4,75c2,3.4,128.5-78.3,130.3-75.2
				c1.5,2.5-120.5,72.4-118.6,75.7c2.1,3.6,130-79.9,132.1-76.3c1.8,3.1-120.6,72.4-118.7,75.7c1.8,3.2,124.6-76.8,126.7-73.1
				c1.9,3.3-115.2,69.7-113.7,72.2c1.7,3,122.4-74.4,124-71.6c1.9,3.3-113.5,68.1-111.5,71.5c2.2,3.8,128.2-78.5,130.1-75.1
				c1.8,3.1-117.6,71.2-115.9,74.1c1.6,2.7,125.9-76.5,127.6-73.7c1.5,2.5-119.7,71.9-117.9,75c1.5,2.6,127.7-78.5,129.8-74.9
				c2,3.4-124.3,73.3-122.2,76.9c1.8,3.2,129-78.3,130.6-75.4c1.9,3.2-118.1,70.8-116.3,73.9c1.7,3,127.5-78.5,129.6-74.8
				c1.5,2.6-119.7,71.5-117.7,74.9c2,3.4,126.1-77.9,128.3-74.1c1.8,3.2-119.2,71.1-117.4,74.4c1.6,2.8,126.3-76.4,127.8-73.8
				c1.8,3.1-116.3,68.8-114.3,72.3c2.2,3.8,123.8-76.2,125.9-72.7c1.4,2.4-115.3,69.7-113.9,72.3c1.8,3.2,127.1-77.8,129-74.5
				c1.9,3.2-123.4,73.9-121.5,77.3c2.1,3.6,129.1-78.4,130.7-75.5c1.6,2.8-114.8,70-113.3,72.5c1.8,3.1,119.4-73.4,121.3-70.1
				c1.9,3.3-115.1,69.8-113.5,72.5c2.1,3.6,124.5-76.7,126.6-73.1c1.4,2.4-113.3,68.6-111.8,71.1c1.4,2.5,109.3-67.1,111.1-64.1
				c1.4,2.4-104.7,62.8-102.9,65.9c1.3,2.3,101-61.1,102.2-59c1.2,2.1-89.8,55-88.4,57.5c1.5,2.6,84.5-52.3,86.1-49.7
				c1.1,1.9-77.6,48.8-76.7,50.4c1.3,2.3,77.6-47.4,78.7-45.4c1,1.8-69.7,44.5-68.8,46.1c1.1,1.9,67.6-41,68.4-39.5
				c0.8,1.4-59.3,38.9-58.6,40.2c0.8,1.4,56.6-34.2,57.2-33c0.7,1.2-47.3,31.9-46.5,33.3c0.5,0.9,48.6-29.9,49.4-28.5
				c0.6,1-37.4,26.7-36.8,27.8c0.4,0.7,31.4-19.4,31.9-18.4c0.3,0.6-20.6,17.2-20.2,17.8c0.3,0.6,24.6-14.9,24.9-14.4
				c0.3,0.6-16.2,15.2-15.9,15.6c0.2,0.3,13.6-8.3,13.8-8c0.1,0.1,1.1,5.5,1.1,5.6c0,0,3.8-2.2,3.8-2.2"/>
		</g>
	</g>
</g>
</svg>
