<?xml version="1.0" encoding="utf-8"?>
<!-- Generator: Adobe Illustrator 17.1.0, SVG Export Plug-In . SVG Version: 6.00 Build 0)  -->
<!DOCTYPE svg PUBLIC "-//W3C//DTD SVG 1.1//EN" "http://www.w3.org/Graphics/SVG/1.1/DTD/svg11.dtd">
<svg version="1.1" id="Layer_1" xmlns="http://www.w3.org/2000/svg" xmlns:xlink="http://www.w3.org/1999/xlink" x="0px" y="0px"
	 viewBox="0 562.5 486.1 141.4" enable-background="new 0 562.5 486.1 141.4" xml:space="preserve">
<g>
	<circle fill="#FF8189" cx="70.7" cy="633.2" r="70.7"/>
	<path fill="#FFFFFF" d="M135.5,606.9c0,0-8.1,14.7-46.1,30.6c-4-21.3,5.3-50.4,5.3-50.4c1.1-4.1-2.1-2.4-2.1-2.4l-17.9,12.9
		c-0.2,0.2-0.1,0.8-0.2,1.1c-0.1,0.4-0.1,1.1-0.1,1.5c-1.5,11.3-15.6,48.7-15.6,48.7c-0.4,1.2-1.1,1.3-1.1,1.3
		c-48.2,16.4-31.5,29.5-31.5,29.5c15.4,7.7,30.6-15.4,44.1-33.1l8.8-3.3c0.8,54.1,32.9,36,32.9,36c1.1-0.3,2.1-2.1,2.1-2.1l7.6-16.6
		c0.8-1.5,1.3-2.8,1.5-3.5c0.1-0.2-0.1-0.5-0.4-0.3c-18.8,9.9-28.3-5.6-32.9-17.9c6.6-2.8,40.6-17.8,46.6-32.5
		C136.4,606.2,136.8,605,135.5,606.9z M55.7,656c-16.6,29.6-26.2,20.4-26.2,20.4C16,666.3,57,652,57,652
		C57.7,652.4,55.7,656,55.7,656z M79,641.7l-7.8,3c4.7-7.8,7.6-13.8,7.6-13.8c1.1-2,1.3-1.7,1.3-1.7C79.8,634.2,79,637.7,79,641.7z"
		/>
</g>
<text transform="matrix(1 0 0 1 151.1704 670.9893)" fill="#FF8189" font-family="'Esprit-Medium'" font-size="94.6383" letter-spacing="19">EGLE</text>
</svg>
