<?xml version="1.0" encoding="utf-8"?>
<!-- Generator: Adobe Illustrator 17.1.0, SVG Export Plug-In . SVG Version: 6.00 Build 0)  -->
<!DOCTYPE svg PUBLIC "-//W3C//DTD SVG 1.1//EN" "http://www.w3.org/Graphics/SVG/1.1/DTD/svg11.dtd">
<svg version="1.1" id="Layer_1" xmlns="http://www.w3.org/2000/svg" xmlns:xlink="http://www.w3.org/1999/xlink" x="0px" y="0px"
	 viewBox="0 420.2 569.4 131.6" enable-background="new 0 420.2 569.4 131.6" xml:space="preserve">
<g>
	<circle fill="#FF8189" cx="65.8" cy="486" r="65.8"/>
	<path fill="#FFFFFF" d="M126.1,461.5c0,0-7.5,13.7-42.9,28.5c-3.7-19.8,4.9-46.9,4.9-46.9c1-3.8-2-2.2-2-2.2l-16.7,12
		c-0.2,0.2-0.1,0.7-0.2,1c-0.1,0.4-0.1,1-0.1,1.4c-1.4,10.5-14.5,45.3-14.5,45.3c-0.4,1.1-1,1.2-1,1.2
		c-44.8,15.3-29.3,27.4-29.3,27.4c14.3,7.2,28.5-14.3,41-30.8l8.2-3.1c0.7,50.3,30.6,33.5,30.6,33.5c1-0.3,2-2,2-2l7.1-15.4
		c0.7-1.4,1.2-2.6,1.4-3.3c0.1-0.2-0.1-0.5-0.4-0.3c-17.5,9.2-26.3-5.2-30.6-16.7c6.1-2.6,37.8-16.6,43.4-30.2
		C126.9,460.9,127.3,459.8,126.1,461.5z M51.8,507.2c-15.4,27.5-24.4,19-24.4,19c-12.5-9.4,25.6-22.7,25.6-22.7
		C53.7,503.9,51.8,507.2,51.8,507.2z M73.5,493.9l-7.3,2.8c4.4-7.3,7.1-12.8,7.1-12.8c1-1.9,1.2-1.6,1.2-1.6
		C74.2,486.9,73.5,490.2,73.5,493.9z"/>
</g>
<text transform="matrix(1 0 0 1 159.2557 521.1592)" fill="#FF8189" font-family="'Esprit-Medium'" font-size="88.0507" letter-spacing="18">AEGLE</text>
</svg>
