<?xml version="1.0" encoding="utf-8"?>
<!-- Generator: Adobe Illustrator 17.1.0, SVG Export Plug-In . SVG Version: 6.00 Build 0)  -->
<!DOCTYPE svg PUBLIC "-//W3C//DTD SVG 1.1//EN" "http://www.w3.org/Graphics/SVG/1.1/DTD/svg11.dtd">
<svg version="1.1" id="Layer_1" xmlns="http://www.w3.org/2000/svg" xmlns:xlink="http://www.w3.org/1999/xlink" x="0px" y="0px"
	 viewBox="0 90 934.9 201" enable-background="new 0 90 934.9 201" xml:space="preserve">
<g>
	<circle fill="#FF8189" cx="100.5" cy="190.5" r="100.5"/>
	<path fill="#FFFFFF" d="M192.7,153.1c0,0-11.4,20.9-65.6,43.6c-5.6-30.2,7.5-71.7,7.5-71.7c1.5-5.8-3.1-3.4-3.1-3.4L106,140
		c-0.3,0.3-0.2,1-0.3,1.5c-0.1,0.6-0.2,1.6-0.2,2.2c-2.1,16-22.1,69.2-22.1,69.2c-0.6,1.7-1.6,1.8-1.6,1.8
		C13.4,238.1,37,256.5,37,256.5c21.8,11,43.6-21.8,62.6-47.1l12.5-4.8c1,76.9,46.7,51.2,46.7,51.2c1.6-0.5,3-3,3-3l10.8-23.5
		c1-2.2,1.8-4,2.2-5c0.2-0.3-0.2-0.7-0.6-0.5c-26.7,14.1-40.2-7.9-46.8-25.5c9.3-3.9,57.7-25.4,66.3-46.1
		C193.8,152.2,194.4,150.5,192.7,153.1z M79.2,222.9c-23.5,42-37.2,29.1-37.2,29.1c-19.1-14.4,39.1-34.7,39.1-34.7
		C82.1,217.9,79.2,222.9,79.2,222.9z M112.3,202.6l-11.2,4.3c6.7-11.2,10.9-19.6,10.9-19.6c1.6-2.9,1.8-2.4,1.8-2.4
		C113.3,191.8,112.3,196.9,112.3,202.6z"/>
</g>
<text transform="matrix(1 0 0 1 309.0211 244.2102)" fill="#FF8189" font-family="'Esprit-Medium'" font-size="134.5075" letter-spacing="29">AEGLE</text>
</svg>
