<?xml version="1.0" encoding="utf-8"?>
<!-- Generator: Adobe Illustrator 17.1.0, SVG Export Plug-In . SVG Version: 6.00 Build 0)  -->
<!DOCTYPE svg PUBLIC "-//W3C//DTD SVG 1.1//EN" "http://www.w3.org/Graphics/SVG/1.1/DTD/svg11.dtd">
<svg version="1.1" id="Layer_1" xmlns="http://www.w3.org/2000/svg" xmlns:xlink="http://www.w3.org/1999/xlink" x="0px" y="0px"
	 viewBox="0 0 149.308 149.308" enable-background="new 0 0 149.308 149.308" xml:space="preserve">
<g>
	<circle fill="#FF8189" cx="74.654" cy="74.654" r="74.654"/>
	<path fill="#FFFFFF" d="M143.149,46.847c0,0-8.503,15.535-48.705,32.373c-4.189-22.424,5.586-53.249,5.586-53.249
		c1.098-4.291-2.323-2.53-2.323-2.53L78.757,37.174c-0.244,0.244-0.151,0.714-0.226,1.144c-0.075,0.43-0.119,1.156-0.179,1.612
		C76.788,51.78,61.916,91.321,61.916,91.321c-0.455,1.229-1.161,1.355-1.161,1.355c-50.764,17.308-33.251,31.001-33.251,31.001
		c16.157,8.208,32.401-16.157,46.485-34.993l9.319-3.543c0.733,57.109,34.66,38.018,34.66,38.018
		c1.161-0.387,2.246-2.246,2.246-2.246l8.036-17.454c0.729-1.665,1.3-2.954,1.64-3.716c0.114-0.255-0.165-0.495-0.411-0.364
		c-19.803,10.491-29.89-5.849-34.781-18.931c6.898-2.917,42.885-18.866,49.254-34.25C143.951,46.197,144.435,44.926,143.149,46.847z
		 M58.854,98.716c-17.439,31.182-27.608,21.594-27.608,21.594c-14.198-10.7,29.044-25.761,29.044-25.761
		C60.981,95.005,58.854,98.716,58.854,98.716z M83.41,83.672l-8.354,3.183c4.977-8.295,8.115-14.585,8.115-14.585
		c1.161-2.143,1.355-1.756,1.355-1.756C84.153,75.642,83.41,79.414,83.41,83.672z"/>
</g>
</svg>
