<?xml version="1.0" encoding="utf-8"?>
<!-- Generator: Adobe Illustrator 17.1.0, SVG Export Plug-In . SVG Version: 6.00 Build 0)  -->
<!DOCTYPE svg PUBLIC "-//W3C//DTD SVG 1.1//EN" "http://www.w3.org/Graphics/SVG/1.1/DTD/svg11.dtd">
<svg version="1.1" id="Layer_1" xmlns="http://www.w3.org/2000/svg" xmlns:xlink="http://www.w3.org/1999/xlink" x="0px" y="0px"
	 viewBox="0 0 35.953 35.275" enable-background="new 0 0 35.953 35.275" xml:space="preserve">
<g>
	<path fill="#FFFFFF" d="M35.953,30.648c0,1.386-1.122,2.51-2.51,2.51H6.674c-1.388,0-2.51-1.124-2.51-2.51V3.878
		c0-1.387,1.121-2.51,2.51-2.51h26.77c1.388,0,2.51,1.123,2.51,2.51V30.648z"/>
	<g>
		<g>
			<polyline fill="none" stroke="#FF8189" stroke-linecap="round" stroke-linejoin="round" points="6.744,4.394 11.696,1.535 
				2.921,8.825 17.34,0.5 2.055,10.573 19.292,0.621 1.21,12.861 21.716,1.021 0.786,14.408 23.245,1.441 0.6,16.164 24.886,2.143 
				0.5,18.019 26.542,2.983 0.616,19.309 27.599,3.73 0.824,21.027 28.97,4.777 1.127,22.13 29.78,5.587 1.475,23.397 30.711,6.517 
				2.198,25.022 31.75,7.961 2.744,26.173 32.481,9.004 3.318,27.031 32.925,9.937 4.129,28.179 33.527,11.206 5.044,29.25 
				33.984,12.542 6.054,30.26 34.361,13.917 6.898,31.01 34.58,15.028 7.915,31.728 34.691,16.269 9.434,32.695 34.777,18.063 
				11.241,33.553 34.598,20.068 13.062,34.135 34.211,21.924 15.295,34.611 33.529,24.083 18.157,34.775 32.235,26.647 
				21.212,34.411 30.354,29.133 			"/>
		</g>
	</g>
	<path fill="#FFFFFF" d="M17.641,6.196c-6.324,0-11.452,5.127-11.452,11.452c0,4.689,2.82,8.718,6.856,10.488
		c-0.033-0.799-0.006-1.76,0.198-2.63c0.22-0.929,1.473-6.24,1.473-6.24s-0.366-0.731-0.366-1.811c0-1.698,0.984-2.965,2.209-2.965
		c1.042,0,1.545,0.782,1.545,1.719c0,1.048-0.668,2.613-1.011,4.064c-0.287,1.215,0.609,2.205,1.807,2.205
		c2.17,0,3.631-2.786,3.631-6.088c0-2.509-1.691-4.388-4.764-4.388c-3.474,0-5.638,2.59-5.638,5.483
		c0,0.998,0.294,1.702,0.754,2.246c0.212,0.251,0.241,0.351,0.165,0.639c-0.055,0.209-0.181,0.718-0.233,0.919
		c-0.076,0.29-0.311,0.394-0.573,0.287c-1.6-0.654-2.345-2.405-2.345-4.375c0-3.253,2.743-7.154,8.184-7.154
		c4.373,0,7.25,3.165,7.25,6.56c0,4.493-2.497,7.848-6.18,7.848c-1.235,0-2.399-0.668-2.796-1.427c0,0-0.666,2.638-0.806,3.148
		c-0.242,0.882-0.718,1.765-1.153,2.453c1.03,0.304,2.118,0.47,3.246,0.47c6.324,0,11.451-5.127,11.451-11.452
		C29.092,11.322,23.966,6.196,17.641,6.196"/>
</g>
</svg>
