<?xml version="1.0" encoding="utf-8"?>
<!-- Generator: Adobe Illustrator 17.1.0, SVG Export Plug-In . SVG Version: 6.00 Build 0)  -->
<!DOCTYPE svg PUBLIC "-//W3C//DTD SVG 1.1//EN" "http://www.w3.org/Graphics/SVG/1.1/DTD/svg11.dtd">
<svg version="1.1" id="Layer_1" xmlns="http://www.w3.org/2000/svg" xmlns:xlink="http://www.w3.org/1999/xlink" x="0px" y="0px"
	 viewBox="0 0 88 88" enable-background="new 0 0 88 88" xml:space="preserve">
<g>
	<g>
		<polyline fill="none" stroke="#FF8189" stroke-linecap="round" stroke-linejoin="round" points="0.03,0.319 0.53,0.03 0.03,1.684 
			2.896,0.029 0.03,3.558 6.145,0.028 0.03,5.271 9.114,0.027 0.03,7.379 12.766,0.026 0.03,9.636 16.679,0.024 0.03,11.206 
			19.399,0.023 0.03,12.851 22.25,0.022 0.03,14.38 24.9,0.021 0.03,16.32 28.262,0.02 0.03,18.235 31.581,0.019 0.03,19.399 
			33.598,0.019 0.03,21.432 37.121,0.017 0.03,22.785 39.467,0.017 0.03,25.093 43.467,0.015 0.03,26.603 46.083,0.014 0.03,27.977 
			48.464,0.013 0.03,29.797 51.619,0.012 0.03,31.475 54.527,0.011 0.03,33.282 57.658,0.01 0.03,34.443 59.671,0.01 0.03,36.35 
			62.975,0.009 0.03,37.865 65.601,0.008 0.03,39.486 68.41,0.007 0.03,41.163 71.317,0.006 0.03,43.118 74.705,0.004 0.03,44.78 
			77.586,0.004 0.03,46.162 79.981,0.003 0.03,47.845 82.896,0.002 0.03,49.597 85.933,0.001 0.03,51.204 87.97,0.432 0.03,53.236 
			87.971,2.464 0.03,55.018 87.971,4.245 0.03,56.634 87.972,5.861 0.03,58.749 87.973,7.975 0.03,59.921 87.973,9.147 0.03,61.221 
			87.974,10.447 0.03,62.811 87.974,12.036 0.03,64.276 87.975,13.501 0.03,66.335 87.975,15.559 0.03,68.598 87.976,17.822 
			0.03,70.706 87.977,19.93 0.03,72.622 87.977,21.846 0.03,74.205 87.978,23.428 0.03,75.381 87.978,24.604 0.03,77.359 
			87.979,26.581 0.03,79.54 87.98,28.762 0.03,80.807 87.98,30.029 0.03,82.644 87.981,31.866 0.03,84.304 87.981,33.525 
			0.03,86.246 87.982,35.467 0.03,87.877 87.983,37.098 3.593,87.999 87.983,39.276 6.903,87.998 87.984,41.185 10.82,87.996 
			87.985,43.445 14.397,87.995 87.986,45.509 18.203,87.994 87.986,47.704 22.204,87.992 87.987,50.013 24.545,87.992 
			87.987,51.363 26.554,87.991 87.988,52.522 30.279,87.99 87.989,54.671 32.519,87.989 87.989,55.963 35.847,87.988 87.99,57.883 
			37.875,87.987 87.99,59.053 41.876,87.986 87.991,61.361 45.686,87.984 87.992,63.559 48.822,87.983 87.992,65.368 50.883,87.983 
			87.993,66.557 54.793,87.981 87.993,68.813 57.471,87.98 87.994,70.358 60.024,87.98 87.995,71.831 64.012,87.978 87.995,74.131 
			67.172,87.977 87.996,75.955 70.93,87.976 87.997,78.122 72.981,87.975 87.997,79.305 75.127,87.974 87.997,80.544 77.997,87.973 
			87.998,82.199 81.488,87.972 87.999,84.213 84.725,87.971 87.999,86.081 87.465,87.97 88,87.661 		"/>
	</g>
</g>
</svg>
