<?xml version="1.0" encoding="utf-8"?>
<!-- Generator: Adobe Illustrator 17.1.0, SVG Export Plug-In . SVG Version: 6.00 Build 0)  -->
<!DOCTYPE svg PUBLIC "-//W3C//DTD SVG 1.1//EN" "http://www.w3.org/Graphics/SVG/1.1/DTD/svg11.dtd">
<svg version="1.1" id="Layer_1" xmlns="http://www.w3.org/2000/svg" xmlns:xlink="http://www.w3.org/1999/xlink" x="0px" y="0px"
	 viewBox="0 0 35.233 35.21" enable-background="new 0 0 35.233 35.21" xml:space="preserve">
<g>
	<g>
		<g>
			<polyline fill="none" stroke="#FF8189" stroke-linecap="round" stroke-linejoin="round" points="6.755,4.291 11.706,1.432 
				3.829,7.453 15.809,0.535 2.155,10.282 19.098,0.5 1.352,12.28 21.255,0.789 0.85,14.11 23.063,1.285 0.652,15.601 24.482,1.843 
				0.5,17.797 26.456,2.812 0.672,19.707 28.021,3.917 1.066,21.767 29.6,5.293 1.389,22.941 30.463,6.155 1.909,24.289 
				31.357,7.287 2.615,25.776 32.309,8.633 3.589,27.296 33.129,10.241 4.312,28.319 33.666,11.372 5.606,29.699 34.201,13.19 
				6.986,30.961 34.599,15.019 8.122,31.764 34.723,16.406 9.997,32.855 34.733,18.573 11.756,33.671 34.56,20.505 14.095,34.312 
				33.938,22.856 15.776,34.55 33.335,24.412 17.741,34.71 32.489,26.195 22.442,33.974 29.492,29.903 			"/>
		</g>
	</g>
	<path fill="#FFFFFF" d="M26.748,16.7c2.051-0.166,2.349-1.257,2.349-1.257c-1.044,0.336-2.067,0.251-2.761,0.113
		c-0.634-4.21-4.88-4.579-4.88-4.579c1.059-0.232,1.886-0.927,1.886-0.927c-0.562-0.033-1.654,0.199-1.654,0.199
		c0.298-0.199,0.662-0.629,0.662-0.629c-0.662,0-1.687,0.694-1.687,0.694c0.099-0.165,0.198-0.562,0.198-0.562
		c-2.481,1.72-3.606,5.723-3.606,5.723c-1.522-1.952-7.641-4.069-7.641-4.069c-0.066,1.753,1.852,2.812,1.852,2.812
		c-0.364,0-1.257,0.198-1.257,0.198c0.099,1.588,2.316,2.283,2.316,2.283c-1.191,0.232-1.323,0.728-1.323,0.728
		c0.496,1.191,2.712,1.323,2.712,1.323s-0.893,0.43-0.794,1.224c0.099,0.794,1.522,0.728,1.522,0.728
		c-4.003,4.102-8.435,0.496-8.435,0.496s2.613,4.3,9.263,4.267c5.036-0.025,10.073-3.018,10.847-7.588
		c1.854,0.161,2.782-0.848,2.782-0.848C27.641,17.263,26.748,16.7,26.748,16.7z"/>
</g>
</svg>
