<?xml version="1.0" encoding="utf-8"?>
<!-- Generator: Adobe Illustrator 17.1.0, SVG Export Plug-In . SVG Version: 6.00 Build 0)  -->
<!DOCTYPE svg PUBLIC "-//W3C//DTD SVG 1.1//EN" "http://www.w3.org/Graphics/SVG/1.1/DTD/svg11.dtd">
<svg version="1.1" id="Layer_1" xmlns="http://www.w3.org/2000/svg" xmlns:xlink="http://www.w3.org/1999/xlink" x="0px" y="0px"
	 viewBox="0 0 35.668 35.24" enable-background="new 0 0 35.668 35.24" xml:space="preserve">
<g>
	<path fill="#FFFFFF" d="M35.668,30.78c0,1.386-1.122,2.51-2.51,2.51H6.389c-1.388,0-2.51-1.124-2.51-2.51V4.009
		c0-1.387,1.121-2.51,2.51-2.51h26.77c1.388,0,2.51,1.123,2.51,2.51V30.78z"/>
	<g>
		<g>
			<polyline fill="none" stroke="#FF8189" stroke-linecap="round" stroke-linejoin="round" points="6.771,4.363 11.722,1.504 
				3.148,8.51 17.022,0.5 2.158,10.381 19.143,0.575 1.422,12.154 21.075,0.807 0.953,13.863 22.764,1.271 0.627,16.129 
				24.908,2.11 0.5,17.693 26.326,2.782 0.665,19.53 27.832,3.845 0.865,21.048 29.035,4.784 1.325,22.723 30.265,6.014 
				1.642,23.766 30.992,6.821 2.138,24.809 31.66,7.764 2.613,25.809 32.299,8.669 3.539,27.275 33.096,10.211 4.324,28.386 
				33.679,11.438 5.695,29.844 34.244,13.361 6.782,30.878 34.591,14.823 7.85,31.633 34.708,16.126 9.264,32.571 34.823,17.815 
				10.624,33.217 34.688,19.324 12.328,33.895 34.449,21.124 15.102,34.56 33.652,23.851 17.115,34.74 32.774,25.699 22.077,34.15 
				29.781,29.702 			"/>
		</g>
	</g>
	<g>
		<g>
			<g>
				<defs>
					<polygon id="SVGID_1_" points="13.347,5.399 12.334,9.635 12.232,9.635 11.17,5.399 9.522,5.399 11.47,11.796 11.47,15.996 
						13.104,15.996 13.104,11.6 15.013,5.399 					"/>
				</defs>
				<use xlink:href="#SVGID_1_"  overflow="visible" fill="#FFFFFF"/>
				<clipPath id="SVGID_2_">
					<use xlink:href="#SVGID_1_"  overflow="visible"/>
				</clipPath>
				<rect x="9.522" y="5.399" clip-path="url(#SVGID_2_)" fill="#FFFFFF" width="5.491" height="10.597"/>
			</g>
			<g>
				<defs>
					<path id="SVGID_3_" d="M16.587,14.664c-0.107-0.118-0.156-0.284-0.156-0.5V9.908c0-0.171,0.058-0.309,0.168-0.415
						c0.112-0.106,0.256-0.157,0.433-0.157c0.192,0,0.346,0.051,0.465,0.157c0.117,0.106,0.18,0.244,0.18,0.415v4.256
						c0,0.21-0.063,0.375-0.178,0.496c-0.114,0.121-0.268,0.181-0.466,0.181C16.837,14.84,16.691,14.781,16.587,14.664
						 M15.525,8.519c-0.392,0.36-0.59,0.843-0.59,1.447v4.053c0,0.662,0.193,1.192,0.572,1.586c0.385,0.392,0.894,0.588,1.529,0.588
						c0.658,0,1.179-0.19,1.556-0.57c0.375-0.38,0.563-0.906,0.563-1.575V10.01c0-0.597-0.192-1.083-0.575-1.461
						c-0.383-0.38-0.876-0.568-1.478-0.568C16.442,7.982,15.916,8.16,15.525,8.519"/>
				</defs>
				<use xlink:href="#SVGID_3_"  overflow="visible" fill="#FFFFFF"/>
				<clipPath id="SVGID_4_">
					<use xlink:href="#SVGID_3_"  overflow="visible"/>
				</clipPath>
				<rect x="14.935" y="7.982" clip-path="url(#SVGID_4_)" fill="#FFFFFF" width="4.22" height="8.211"/>
			</g>
			<g>
				<defs>
					<path id="SVGID_5_" d="M23.084,8.179v5.934c-0.138,0.171-0.285,0.31-0.451,0.42c-0.163,0.111-0.297,0.167-0.404,0.167
						c-0.136,0-0.234-0.044-0.295-0.126c-0.059-0.082-0.093-0.216-0.093-0.402V8.179H20.39v6.534c0,0.467,0.085,0.816,0.254,1.048
						c0.172,0.231,0.424,0.346,0.759,0.346c0.273,0,0.555-0.081,0.847-0.246c0.288-0.168,0.565-0.411,0.835-0.728v0.863h1.452V8.179
						H23.084z"/>
				</defs>
				<use xlink:href="#SVGID_5_"  overflow="visible" fill="#FFFFFF"/>
				<clipPath id="SVGID_6_">
					<use xlink:href="#SVGID_5_"  overflow="visible"/>
				</clipPath>
				<rect x="20.39" y="8.179" clip-path="url(#SVGID_6_)" fill="#FFFFFF" width="4.147" height="7.928"/>
			</g>
		</g>
		<g>
			<g>
				<defs>
					<rect id="SVGID_7_" x="8.101" y="17.198" width="19.133" height="12.635"/>
				</defs>
				<clipPath id="SVGID_8_">
					<use xlink:href="#SVGID_7_"  overflow="visible"/>
				</clipPath>
				<g clip-path="url(#SVGID_8_)">
					<defs>
						<rect id="SVGID_9_" x="8.101" y="17.198" width="19.131" height="12.635"/>
					</defs>
					<clipPath id="SVGID_10_">
						<use xlink:href="#SVGID_9_"  overflow="visible"/>
					</clipPath>
					<path clip-path="url(#SVGID_10_)" fill="#FFFFFF" d="M24.59,17.33l0.005,0.001h0.012c1.374,0,2.493,1.105,2.493,2.464v0.014
						l0.002,0.013c0.09,1.188,0.136,2.432,0.132,3.693c0.003,1.265-0.042,2.509-0.132,3.697L27.1,27.225v0.015
						c0,1.357-1.118,2.463-2.493,2.463h-0.012H24.59c-2.199,0.093-4.529,0.135-6.921,0.131c-2.396,0.004-4.722-0.038-6.923-0.131
						h-0.005h-0.01c-1.376,0-2.494-1.106-2.494-2.463v-0.015l-0.002-0.012c-0.091-1.188-0.136-2.431-0.134-3.696
						c-0.002-1.261,0.042-2.505,0.134-3.694l0.002-0.013v-0.014c0-1.359,1.118-2.464,2.494-2.464h0.01l0.005-0.001
						c2.197-0.091,4.527-0.134,6.92-0.132C20.061,17.196,22.391,17.239,24.59,17.33"/>
				</g>
			</g>
			<g>
				<path fill="#FF8189" d="M13.436,18.9H9.268v1.278h1.407v7.518h1.361v-7.518h1.4V18.9z M15.658,26.131
					c-0.115,0.143-0.238,0.258-0.373,0.349c-0.134,0.093-0.248,0.138-0.336,0.138c-0.112,0-0.197-0.035-0.246-0.104
					c-0.051-0.07-0.073-0.181-0.073-0.334v-4.973h-1.212v5.423c0,0.387,0.075,0.676,0.214,0.868
					c0.143,0.194,0.351,0.291,0.631,0.291c0.226,0,0.46-0.07,0.703-0.207c0.237-0.137,0.47-0.339,0.692-0.603v0.718h1.205v-6.489
					h-1.205V26.131z M20.33,21.125c-0.187,0-0.372,0.051-0.553,0.155c-0.183,0.103-0.356,0.253-0.517,0.451V18.9H18.04v8.796h1.218
					v-0.501c0.16,0.197,0.329,0.344,0.514,0.44c0.185,0.094,0.392,0.141,0.629,0.141c0.36,0,0.631-0.121,0.82-0.366
					c0.19-0.244,0.283-0.598,0.283-1.06v-3.599c0-0.528-0.098-0.932-0.3-1.209C21.005,21.263,20.713,21.125,20.33,21.125
					 M20.265,26.173c0,0.207-0.036,0.357-0.105,0.449c-0.068,0.089-0.176,0.135-0.327,0.135c-0.1,0-0.197-0.024-0.29-0.07
					c-0.09-0.047-0.187-0.123-0.283-0.227v-4.044c0.08-0.089,0.164-0.155,0.248-0.197c0.086-0.042,0.168-0.064,0.254-0.064
					c0.165,0,0.287,0.057,0.375,0.17c0.087,0.114,0.129,0.279,0.129,0.499V26.173z M25.964,24.605v-1.654
					c0-0.617-0.148-1.087-0.443-1.416c-0.298-0.328-0.723-0.492-1.274-0.492c-0.538,0-0.979,0.179-1.32,0.532
					c-0.341,0.354-0.513,0.814-0.513,1.377v2.912c0,0.623,0.156,1.115,0.467,1.472c0.311,0.357,0.736,0.535,1.276,0.535
					c0.599,0,1.052-0.168,1.356-0.503c0.3-0.338,0.451-0.838,0.451-1.503v-0.488h-1.242v0.452c0,0.381-0.039,0.626-0.117,0.74
					c-0.08,0.113-0.222,0.167-0.421,0.167c-0.193,0-0.326-0.064-0.404-0.197c-0.083-0.131-0.126-0.369-0.126-0.709v-1.222H25.964z
					 M23.655,22.939c0-0.272,0.042-0.465,0.129-0.583c0.081-0.119,0.219-0.176,0.414-0.176c0.182,0,0.316,0.058,0.399,0.176
					c0.085,0.118,0.126,0.31,0.126,0.583v0.656h-1.067V22.939z"/>
				<path fill="#FF8189" d="M13.436,18.994H9.268v1.276h1.407v7.52h1.361v-7.52h1.4V18.994z M15.658,26.227
					c-0.115,0.139-0.238,0.257-0.373,0.349c-0.134,0.09-0.248,0.135-0.336,0.135c-0.112,0-0.197-0.035-0.246-0.103
					c-0.051-0.066-0.073-0.179-0.073-0.333v-4.973h-1.212v5.422c0,0.387,0.075,0.676,0.214,0.87c0.143,0.193,0.351,0.29,0.631,0.29
					c0.226,0,0.46-0.07,0.703-0.206c0.237-0.139,0.47-0.341,0.692-0.605v0.717h1.205v-6.488h-1.205V26.227z M20.33,21.219
					c-0.187,0-0.372,0.051-0.553,0.155c-0.183,0.104-0.356,0.254-0.517,0.451v-2.831H18.04v8.795h1.218v-0.498
					c0.16,0.195,0.329,0.344,0.514,0.436c0.185,0.097,0.392,0.144,0.629,0.144c0.36,0,0.631-0.122,0.82-0.367
					c0.19-0.244,0.283-0.598,0.283-1.059v-3.598c0-0.532-0.098-0.935-0.3-1.212C21.005,21.357,20.713,21.219,20.33,21.219
					 M20.265,26.267c0,0.207-0.036,0.356-0.105,0.448c-0.068,0.092-0.176,0.136-0.327,0.136c-0.1,0-0.197-0.022-0.29-0.071
					c-0.09-0.046-0.187-0.121-0.283-0.227v-4.042c0.08-0.088,0.164-0.155,0.248-0.197c0.086-0.044,0.168-0.065,0.254-0.065
					c0.165,0,0.287,0.058,0.375,0.173c0.087,0.111,0.129,0.278,0.129,0.496V26.267z M25.964,24.696v-1.649
					c0-0.618-0.148-1.089-0.443-1.416c-0.298-0.33-0.723-0.493-1.274-0.493c-0.538,0-0.979,0.176-1.32,0.532
					c-0.341,0.354-0.513,0.813-0.513,1.378v2.912c0,0.622,0.156,1.113,0.467,1.47c0.311,0.357,0.736,0.536,1.276,0.536
					c0.599,0,1.052-0.169,1.356-0.504c0.3-0.338,0.451-0.838,0.451-1.501V25.47h-1.242v0.451c0,0.383-0.039,0.627-0.117,0.741
					c-0.08,0.111-0.222,0.168-0.421,0.168c-0.193,0-0.326-0.066-0.404-0.199c-0.083-0.132-0.126-0.368-0.126-0.709v-1.224H25.964z
					 M23.655,23.033c0-0.273,0.042-0.466,0.129-0.584c0.081-0.118,0.219-0.176,0.414-0.176c0.182,0,0.316,0.059,0.399,0.176
					c0.085,0.118,0.126,0.31,0.126,0.584v0.657h-1.067V23.033z"/>
			</g>
		</g>
	</g>
</g>
</svg>
